<svg width="32" height="32" viewBox="0 0 32 32" fill="none" xmlns="http://www.w3.org/2000/svg">
  <!-- Background circle -->
  <circle cx="16" cy="16" r="15" fill="#4CAF50" stroke="#2E7D32" stroke-width="2"/>
  
  <!-- Apple shape (nutrition symbol) -->
  <path d="M16 6C13.5 6 11.5 8 11.5 10.5C11.5 13.5 14 16.5 16 20C18 16.5 20.5 13.5 20.5 10.5C20.5 8 18.5 6 16 6Z" fill="white"/>
  
  <!-- Apple leaf -->
  <path d="M16 6C16.5 5.5 17.5 5 18.5 5.5C18.8 5.7 18.8 6.2 18.5 6.5C18 6.8 17 6.5 16 6Z" fill="#2E7D32"/>
  
  <!-- Small heart in center -->
  <path d="M16 11C15.2 10.3 14 10.3 13.5 11C13 11.7 13.2 12.5 14 13L16 14.5L18 13C18.8 12.5 19 11.7 18.5 11C18 10.3 16.8 10.3 16 11Z" fill="#E53935"/>
</svg>
